<?xml version="1.0" encoding="utf-8"?>
<!-- Generator: Adobe Illustrator 23.0.1, SVG Export Plug-In . SVG Version: 6.00 Build 0)  -->
<svg version="1.1" id="Layer_1" xmlns="http://www.w3.org/2000/svg" xmlns:xlink="http://www.w3.org/1999/xlink" x="0px" y="0px"
	 viewBox="0 0 160.19 194.85" style="enable-background:new 0 0 160.19 194.85;" xml:space="preserve">
<style type="text/css">
	.st0{fill:#231F20;}
</style>
<g>
	<path class="st0" d="M59.34,193.55c0-28.61,0-57.23,0-86.45c-9.92,0-19.18,0-28.92,0c-0.13-2.35-0.3-4.12-0.31-5.89
		c-0.03-8.67-0.05-17.33,0-26c0.03-4.6,0.24-4.82,4.78-4.85c7.82-0.06,15.64-0.02,24.03-0.02c0.15-2.21,0.35-4.13,0.4-6.05
		c0.26-9.48,0.05-19,0.82-28.43c1.3-15.91,15.41-30.78,31.11-33.52c2.61-0.45,5.26-0.95,7.9-0.98c10.15-0.11,20.3-0.05,30.95-0.05
		c0,11.1,0,21.8,0,33.11c-1.65,0.12-3.41,0.33-5.17,0.35c-5.83,0.05-11.67-0.07-17.5,0.05c-5.82,0.12-10.61,4.21-10.78,9.66
		c-0.27,8.31-0.07,16.64-0.07,25.69c10.91,0,21.63,0,33.09,0c-0.57,12.63-2.88,24.28-4.38,36.76c-9.47,0-18.86,0-28.95,0
		c0,29.38,0,58,0,86.62C84.01,193.55,71.68,193.55,59.34,193.55z"/>
</g>
</svg>
