<?xml version="1.0" encoding="utf-8"?>
<!-- Generator: Adobe Illustrator 23.0.1, SVG Export Plug-In . SVG Version: 6.00 Build 0)  -->
<svg version="1.1" id="Layer_1" xmlns="http://www.w3.org/2000/svg" xmlns:xlink="http://www.w3.org/1999/xlink" x="0px" y="0px"
	 viewBox="0 0 52.33 52.72" style="enable-background:new 0 0 52.33 52.72;" xml:space="preserve">
<style type="text/css">
	.st0{fill:#414042;}
	.st1{fill:#CF1F25;}
</style>
<g>
	<path class="st0" d="M52.34,25.03c-3.35,0-6.63,0-9.97,0c-0.15-3.56-0.78-7.01-1.88-10.3c2.34-1.22,4.63-2.41,6.99-3.63
		C50.41,15.21,52.03,19.84,52.34,25.03z"/>
	<path class="st0" d="M9.97,25.02c-3.38,0-6.66,0-9.99,0c0.29-5.15,1.91-9.78,4.87-13.93c2.32,1.21,4.6,2.4,6.97,3.63
		C10.78,17.99,10.09,21.42,9.97,25.02z"/>
	<path class="st0" d="M47.47,41.61c-2.34-1.22-4.59-2.39-6.9-3.6c1.05-3.28,1.68-6.73,1.79-10.31c3.35,0,6.64,0,9.97,0
		C52.04,32.85,50.41,37.47,47.47,41.61z"/>
	<path class="st0" d="M9.94,27.71c0.14,3.52,0.72,6.98,1.81,10.3c-2.3,1.2-4.57,2.38-6.84,3.57c-2.5-3.04-4.72-8.6-4.91-13.87
		C3.29,27.71,6.58,27.71,9.94,27.71z"/>
	<path class="st1" d="M24.83,27.7c0,2.57,0,5.11,0,7.59c-1.82,0.23-3.61,0.39-5.37,0.7c-1.74,0.3-3.45,0.76-5.24,1.16
		c-1-3.03-1.55-6.17-1.65-9.46C16.64,27.7,20.71,27.7,24.83,27.7z"/>
	<path class="st1" d="M39.76,27.7c-0.1,3.29-0.66,6.43-1.68,9.54c-3.47-1.08-6.97-1.72-10.58-1.84c0-2.59,0-5.12,0-7.7
		C31.56,27.7,35.62,27.7,39.76,27.7z"/>
	<path class="st1" d="M14.38,15.49c3.41,1.07,6.87,1.68,10.44,1.82c0,2.57,0,5.11,0,7.69c-4.05,0-8.11,0-12.17,0
		C12.42,23.23,13.43,17.61,14.38,15.49z"/>
	<path class="st1" d="M37.99,15.49c1.05,3.12,1.64,6.25,1.75,9.52c-4.09,0-8.14,0-12.24,0c0-2.53,0-5.08,0-7.7
		C31.06,17.17,34.54,16.56,37.99,15.49z"/>
	<path class="st0" d="M24.83,38c0,4.86,0,9.65,0,14.59c-0.33-0.14-0.67-0.19-0.88-0.38c-3.8-3.43-6.68-7.51-8.68-12.21
		c-0.04-0.08-0.03-0.18-0.06-0.32C18.33,38.68,21.52,38.12,24.83,38z"/>
	<path class="st0" d="M27.49,52.72c0-5.06,0-9.85,0-14.71c3.31,0.11,6.49,0.67,9.65,1.68c-0.07,0.23-0.12,0.41-0.19,0.58
		c-1.96,4.51-4.74,8.43-8.35,11.76C28.32,52.28,27.95,52.43,27.49,52.72z"/>
	<path class="st0" d="M15.24,13.03C17.41,7.96,20.53,3.68,24.81,0c0,5.01,0,9.81,0,14.69C21.55,14.59,18.39,14.04,15.24,13.03z"/>
	<path class="st0" d="M27.5,0c4.3,3.69,7.41,7.97,9.57,13.04c-3.15,1-6.3,1.55-9.57,1.66C27.5,9.85,27.5,5.04,27.5,0z"/>
	<path class="st0" d="M39.58,12.28c-1.82-4.3-4.21-8.01-7.22-11.33c5.28,1.25,9.69,3.92,13.49,8.09
		C43.73,10.13,41.71,11.18,39.58,12.28z"/>
	<path class="st0" d="M6.47,9.05c3.78-4.17,8.21-6.84,13.69-8.22c-3.2,3.43-5.6,7.13-7.41,11.44C10.66,11.2,8.63,10.16,6.47,9.05z"
		/>
	<path class="st0" d="M32.71,51.67c2.9-3.32,5.22-6.97,6.96-11.2c2.05,1.06,4.06,2.1,6.17,3.19C42.17,47.72,37.86,50.37,32.71,51.67
		z"/>
	<path class="st0" d="M19.8,51.78c-5.33-1.4-9.63-4.05-13.32-8.11c2.11-1.09,4.11-2.13,6.16-3.2C14.38,44.7,16.7,48.36,19.8,51.78z"
		/>
</g>
</svg>
