<?xml version="1.0" encoding="utf-8"?>
<!-- Generator: Adobe Illustrator 23.0.1, SVG Export Plug-In . SVG Version: 6.00 Build 0)  -->
<svg version="1.1" id="Layer_1" xmlns="http://www.w3.org/2000/svg" xmlns:xlink="http://www.w3.org/1999/xlink" x="0px" y="0px"
	 viewBox="0 0 235.73 235.08" style="enable-background:new 0 0 235.73 235.08;" xml:space="preserve">
<style type="text/css">
	.st0{fill:#231F20;}
</style>
<g>
	<path class="st0" d="M117.56,231.91c-18.04,0-36.09,0.28-54.13-0.06c-32.45-0.62-60.26-28.88-60.41-61.43
		c-0.16-34.2,0.51-68.41,0-102.6C2.52,34.69,30.06,3.66,65.32,3.36c34.83-0.29,69.67-0.53,104.49,0.09
		c35.65,0.63,62.47,28.2,62.77,63.79c0.27,33.36-0.13,66.73,0.15,100.09c0.26,30.81-21.86,58.5-54.78,63.98
		c-4.51,0.75-9.21,0.51-13.82,0.52c-15.53,0.06-31.05,0.02-46.58,0.02C117.56,231.88,117.56,231.89,117.56,231.91z M117.55,20.24
		c0-0.01,0-0.01,0-0.02c-17,0-34-0.01-50.99,0C40.99,20.24,19.7,40.57,19.43,66.17c-0.36,34.41-0.34,68.83,0.08,103.24
		c0.3,25.11,21.59,45.86,46.66,46.01c34.41,0.21,68.83,0.23,103.25,0.08c25.3-0.1,46.42-21.5,46.44-46.75
		c0.03-33.58,0.03-67.15-0.07-100.73c-0.08-27.23-20.54-47.62-47.87-47.77C151.13,20.16,134.34,20.24,117.55,20.24z"/>
	<path class="st0" d="M118.06,183.87c-32.16,0.77-60.4-27.63-59.63-60.77c0.73-31.57,27.65-58.81,59.48-58.84
		c33.57-0.03,60.36,26.81,60.56,60.21C178.67,156.73,150.83,184.87,118.06,183.87z M118.26,81.5
		c-24.53,0.08-43.63,19.08-43.51,43.28c0.12,24.01,19.61,42.99,44.05,42.9c23.7-0.08,43.27-19.59,42.85-43.41
		C161.21,99.08,141.51,81.19,118.26,81.5z"/>
	<path class="st0" d="M191.91,55.38c-0.12,6.08-5.24,10.69-11.67,10.5c-5.98-0.17-10.54-5.03-10.37-11.04
		c0.17-5.92,5.09-10.75,10.9-10.69C186.83,44.21,192.03,49.46,191.91,55.38z"/>
</g>
</svg>
