<?xml version="1.0" encoding="utf-8"?>
<!-- Generator: Adobe Illustrator 23.0.1, SVG Export Plug-In . SVG Version: 6.00 Build 0)  -->
<svg version="1.1" id="Layer_1" xmlns="http://www.w3.org/2000/svg" xmlns:xlink="http://www.w3.org/1999/xlink" x="0px" y="0px"
	 viewBox="0 0 258.17 52.72" style="enable-background:new 0 0 258.17 52.72;" xml:space="preserve">
<style type="text/css">
	.st0{fill:#414042;}
	.st1{fill:#CF1F25;}
</style>
<g>
	<path class="st0" d="M52.34,25.03c-3.35,0-6.63,0-9.97,0c-0.15-3.56-0.78-7.01-1.88-10.3c2.34-1.22,4.63-2.41,6.99-3.63
		C50.41,15.21,52.03,19.84,52.34,25.03z"/>
	<path class="st0" d="M9.97,25.02c-3.38,0-6.66,0-9.99,0c0.29-5.15,1.91-9.78,4.87-13.93c2.32,1.21,4.6,2.4,6.97,3.63
		C10.78,17.99,10.09,21.42,9.97,25.02z"/>
	<path class="st0" d="M47.47,41.61c-2.34-1.22-4.59-2.39-6.9-3.6c1.05-3.28,1.68-6.73,1.79-10.31c3.35,0,6.64,0,9.97,0
		C52.04,32.85,50.41,37.47,47.47,41.61z"/>
	<path class="st0" d="M9.94,27.71c0.14,3.52,0.72,6.98,1.81,10.3c-2.3,1.2-4.57,2.38-6.84,3.57c-2.5-3.04-4.72-8.6-4.91-13.87
		C3.29,27.71,6.58,27.71,9.94,27.71z"/>
	<path class="st1" d="M24.83,27.7c0,2.57,0,5.11,0,7.59c-1.82,0.23-3.61,0.39-5.37,0.7c-1.74,0.3-3.45,0.76-5.24,1.16
		c-1-3.03-1.55-6.17-1.65-9.46C16.64,27.7,20.71,27.7,24.83,27.7z"/>
	<path class="st1" d="M39.76,27.7c-0.1,3.29-0.66,6.43-1.68,9.54c-3.47-1.08-6.97-1.72-10.58-1.84c0-2.59,0-5.12,0-7.7
		C31.56,27.7,35.62,27.7,39.76,27.7z"/>
	<path class="st1" d="M14.38,15.49c3.41,1.07,6.87,1.68,10.44,1.82c0,2.57,0,5.11,0,7.69c-4.05,0-8.11,0-12.17,0
		C12.42,23.23,13.43,17.61,14.38,15.49z"/>
	<path class="st1" d="M37.99,15.49c1.05,3.12,1.64,6.25,1.75,9.52c-4.09,0-8.14,0-12.24,0c0-2.53,0-5.08,0-7.7
		C31.06,17.17,34.54,16.56,37.99,15.49z"/>
	<path class="st0" d="M24.83,38c0,4.86,0,9.65,0,14.59c-0.33-0.14-0.67-0.19-0.88-0.38c-3.8-3.43-6.68-7.51-8.68-12.21
		c-0.04-0.08-0.03-0.18-0.06-0.32C18.33,38.68,21.52,38.12,24.83,38z"/>
	<path class="st0" d="M27.49,52.72c0-5.06,0-9.85,0-14.71c3.31,0.11,6.49,0.67,9.65,1.68c-0.07,0.23-0.12,0.41-0.19,0.58
		c-1.96,4.51-4.74,8.43-8.35,11.76C28.32,52.28,27.95,52.43,27.49,52.72z"/>
	<path class="st0" d="M15.24,13.03c2.17-5.07,5.29-9.35,9.57-13.03c0,5.01,0,9.81,0,14.69C21.55,14.59,18.39,14.04,15.24,13.03z"/>
	<path class="st0" d="M27.5,0c4.3,3.69,7.41,7.97,9.57,13.04c-3.15,1-6.3,1.55-9.57,1.66C27.5,9.85,27.5,5.04,27.5,0z"/>
	<path class="st0" d="M39.58,12.28c-1.82-4.3-4.21-8.01-7.22-11.33c5.28,1.25,9.69,3.92,13.49,8.09
		C43.73,10.13,41.71,11.18,39.58,12.28z"/>
	<path class="st0" d="M6.47,9.05c3.78-4.17,8.21-6.84,13.69-8.22c-3.2,3.43-5.6,7.13-7.41,11.44C10.66,11.2,8.63,10.16,6.47,9.05z"
		/>
	<path class="st0" d="M32.71,51.67c2.9-3.32,5.22-6.97,6.96-11.2c2.05,1.06,4.06,2.1,6.17,3.19C42.17,47.72,37.86,50.37,32.71,51.67
		z"/>
	<path class="st0" d="M19.8,51.78c-5.33-1.4-9.63-4.05-13.32-8.11c2.11-1.09,4.11-2.13,6.16-3.2C14.38,44.7,16.7,48.36,19.8,51.78z"
		/>
</g>
<g>
	<path class="st0" d="M64.61,14.03h-4.14V10.1h9.9l12.54,24.4H83V14.03h-4.05V10.1h11.9v3.93h-4.27v27.78h-4.56L68.28,15h-0.09
		v22.55h4.18v3.93h-11.9v-3.93h4.14V14.03z"/>
	<path class="st0" d="M94.34,31.64c0.6,4.25,3.16,6.7,6.91,6.7c2.6,0,5.03-1.25,6.53-3.56l3.5,1.66c-2.18,3.65-5.8,5.69-10.11,5.69
		c-6.53,0-11.22-4.81-11.22-11.55c0-7.07,5.33-11.55,10.58-11.55c5.59,0,10.75,4.62,10.75,12.62H94.34z M107.23,28.5
		c-0.64-3.47-3.46-6.01-6.61-6.01c-3.16,0-5.55,2.36-6.14,6.01H107.23z"/>
	<path class="st0" d="M114.43,23.46h-2.47v-3.79h8.49v3.79h-2.6l3.8,13.17h0.09l3.8-13.17h-2.22v-3.79h9.77v3.79h-2.18l3.8,13.17
		h0.08l3.84-13.17h-2.82v-3.79h9.09v3.79h-2.86l-5.42,18.4h-3.71l-4.57-15.81h-0.08l-4.69,15.81h-3.75L114.43,23.46z"/>
	<path class="st0" d="M146.64,34h3.54v0.74c0.34,2.17,2.18,3.51,4.82,3.51c2.52,0,4.14-1.06,4.14-2.73c0-4.07-7.08-1.48-10.92-5.64
		c-0.94-1.02-1.58-2.54-1.58-4.16c0-3.74,2.99-6.42,7.08-6.42c1.83,0,3.58,0.46,4.91,1.25v-0.88h3.5v7.21h-3.5v-1.34
		c-1.15-1.85-2.64-2.68-4.69-2.68c-2.13,0-3.54,1.06-3.54,2.68c0,3.65,7.76,1.52,11.09,5.13c1.2,1.29,1.71,3,1.71,4.53
		c0,3.97-3.11,6.66-7.72,6.66c-2.18,0-3.84-0.51-5.29-1.57v1.2h-3.54V34z"/>
</g>
<g>
	<path class="st1" d="M188.02,25.4h10.54c0.01,0.41,0.02,0.77,0.02,1.08c0,4.41-1.33,7.94-4,10.58s-6.19,3.97-10.56,3.97
		c-5.24,0-9.14-1.61-11.71-4.84c-2.57-3.23-3.85-7.04-3.85-11.45c0-4.62,1.31-8.45,3.94-11.51c2.62-3.05,6.19-4.58,10.68-4.58
		c4.04,0,7.43,1.33,10.17,3.99v-3.5h3.69v10.31h-3.69c-0.7-1.73-1.93-3.27-3.7-4.61s-3.79-2.02-6.07-2.02
		c-3.17,0-5.67,1.16-7.5,3.48c-1.83,2.32-2.75,5.11-2.75,8.37c0,3.75,1.04,6.72,3.13,8.91s4.61,3.29,7.55,3.29
		c2.31,0,4.36-0.7,6.17-2.09c1.8-1.39,2.86-3.22,3.17-5.47h-5.23V25.4z"/>
	<path class="st1" d="M205.6,36.73V22.51h-4.06v-3.81h7.23v4.92c0.44-1.28,1.06-2.34,1.85-3.18c0.79-0.84,1.63-1.4,2.51-1.67
		s2.09-0.41,3.61-0.41h1.04v4.33h-0.79c-2.01,0-3.52,0.22-4.51,0.65c-0.99,0.44-1.73,1.23-2.21,2.38c-0.48,1.15-0.72,3.22-0.72,6.19
		v4.81h4.4v3.81h-12.41v-3.81H205.6z"/>
	<path class="st1" d="M223.76,36.73V22.51h-3.12v-3.81h7.08v18.03h3.12v3.81h-10.21v-3.81H223.76z M223.19,11.27
		c0-0.69,0.23-1.29,0.68-1.81c0.45-0.51,1.02-0.77,1.72-0.77c0.65,0,1.21,0.25,1.69,0.74c0.47,0.5,0.71,1.11,0.71,1.83
		c0,0.72-0.24,1.34-0.71,1.84c-0.47,0.5-1.04,0.76-1.69,0.76c-0.67,0-1.23-0.26-1.7-0.77C223.43,12.59,223.19,11.98,223.19,11.27z"
		/>
	<path class="st1" d="M258.25,36.73v3.81h-7.58v-3.2c-1.97,2.38-4.37,3.57-7.21,3.57c-2.63,0-4.93-0.97-6.92-2.91
		c-1.99-1.94-2.98-4.7-2.98-8.28c0-3.6,1.02-6.43,3.06-8.51s4.35-3.11,6.92-3.11c2.72,0,5.1,1.17,7.12,3.52v-8.64h-3.87V9.15h7.83
		v27.58H258.25z M237.79,29.59c0,2.41,0.63,4.26,1.89,5.55c1.26,1.29,2.76,1.94,4.51,1.94c1.69,0,3.2-0.68,4.51-2.04
		c1.31-1.36,1.97-3.25,1.97-5.65c0-2.42-0.67-4.25-2.01-5.48c-1.34-1.23-2.84-1.85-4.51-1.85c-1.79,0-3.3,0.73-4.52,2.18
		C238.41,25.69,237.79,27.47,237.79,29.59z"/>
</g>
</svg>
