<?xml version="1.0" encoding="utf-8"?>
<!-- Generator: Adobe Illustrator 23.0.1, SVG Export Plug-In . SVG Version: 6.00 Build 0)  -->
<svg version="1.1" id="Layer_1" xmlns="http://www.w3.org/2000/svg" xmlns:xlink="http://www.w3.org/1999/xlink" x="0px" y="0px"
	 viewBox="0 0 278.11 235.08" style="enable-background:new 0 0 278.11 235.08;" xml:space="preserve">
<style type="text/css">
	.st0{fill:#231F20;}
</style>
<g>
	<path class="st0" d="M0,207.3c28.73,0.68,54.75-5.74,79.35-24.03c-4.34-1.26-7.11-2.15-9.92-2.86
		c-16.55-4.15-28.54-14.07-36.51-28.98c-1.27-2.38-1.96-5.06-3.39-8.84c7.03-0.49,12.91-0.9,18.79-1.31
		C22.91,130.73,9.5,112.67,8.96,84.13c7.18,2,13.19,3.68,19.19,5.35c0.34-0.54,0.67-1.07,1.01-1.61c-2.39-2.99-4.87-5.93-7.17-8.99
		C9.72,62.56,4.8,44.87,12.47,25.07c1.25-3.22,3.36-6.11,5.66-10.2c31.54,34.86,69.73,53.95,115.89,58.95c0-2.47,0.1-4.07-0.02-5.65
		c-1.77-24.04,7.17-43.1,27.67-55.74c20.93-12.91,42.73-12.6,62.59,1.75c8.96,6.48,16.13,6.93,25.23,2.48
		c6-2.94,12.41-5.07,18.75-7.61c1.15,7.91-3.52,15.31-18.04,28.85c9.61,0.4,17.42-4.43,27.9-5.97c-2.97,4.12-4.59,6.98-6.79,9.29
		c-5.06,5.28-10.17,10.55-15.7,15.31c-3.77,3.24-5.2,6.82-5.3,11.69c-0.54,27.16-6.59,53.03-19.9,76.81
		c-27.18,48.54-68.11,77.58-123.5,85.39c-35.76,5.04-69.37-1.82-100.9-19.22C3.93,210.03,2,208.6,0,207.3z"/>
</g>
</svg>
