<?xml version="1.0" encoding="utf-8"?>
<!-- Generator: Adobe Illustrator 23.0.1, SVG Export Plug-In . SVG Version: 6.00 Build 0)  -->
<svg version="1.1" id="Layer_1" xmlns="http://www.w3.org/2000/svg" xmlns:xlink="http://www.w3.org/1999/xlink" x="0px" y="0px"
	 viewBox="0 0 273.17 192.19" style="enable-background:new 0 0 273.17 192.19;" xml:space="preserve">
<style type="text/css">
	.st0{fill:#231F20;}
</style>
<g>
	<path class="st0" d="M143.8,189.08c-34.67-1.17-61.3-1.9-87.92-3.07c-7.43-0.32-14.93-1.38-22.19-3.02
		c-14.64-3.31-25.3-15.4-27.53-30.72C1.8,122.32,2.21,92.2,3.89,62.09c0.48-8.6,2.07-17.13,3.01-25.71
		C8.54,21.22,23.52,8.97,39.24,7.11c34.98-4.13,70.11-4.22,105.24-3.89c23.47,0.23,46.94,1.12,70.4,2.06
		c7.61,0.31,15.26,1.28,22.75,2.7c15.91,3.01,25.6,12.84,28.34,28.79c5.04,29.36,5.33,58.95,3.37,88.59
		c-0.63,9.6-1.78,19.2-3.3,28.7c-2.65,16.48-15.17,28.76-32.03,29.95C201.33,186.32,168.58,187.73,143.8,189.08z M111.34,54.65
		c0,27.69,0,54.5,0,81.99c22.46-13.81,44.29-27.24,66.67-41C155.51,81.81,133.73,68.42,111.34,54.65z"/>
</g>
</svg>
